G04 #@! TF.GenerationSoftware,KiCad,Pcbnew,(2017-01-24 revision 0b6147e)-makepkg*
G04 #@! TF.CreationDate,2017-09-23T14:32:10-07:00*
G04 #@! TF.ProjectId,LIR2032Charger,4C495232303332436861726765722E6B,rev?*
G04 #@! TF.FileFunction,Legend,Bot*
G04 #@! TF.FilePolarity,Positive*
%FSLAX46Y46*%
G04 Gerber Fmt 4.6, Leading zero omitted, Abs format (unit mm)*
G04 Created by KiCad (PCBNEW (2017-01-24 revision 0b6147e)-makepkg) date 09/23/17 14:32:10*
%MOMM*%
%LPD*%
G01*
G04 APERTURE LIST*
%ADD10C,0.100000*%
%ADD11C,0.150000*%
%ADD12R,4.360000X4.360000*%
%ADD13C,3.500000*%
G04 APERTURE END LIST*
D10*
D11*
X113568571Y-94122619D02*
X113520952Y-94075000D01*
X113425714Y-94027380D01*
X113187619Y-94027380D01*
X113092380Y-94075000D01*
X113044761Y-94122619D01*
X112997142Y-94217857D01*
X112997142Y-94313095D01*
X113044761Y-94455952D01*
X113616190Y-95027380D01*
X112997142Y-95027380D01*
X112378095Y-94027380D02*
X112282857Y-94027380D01*
X112187619Y-94075000D01*
X112140000Y-94122619D01*
X112092380Y-94217857D01*
X112044761Y-94408333D01*
X112044761Y-94646428D01*
X112092380Y-94836904D01*
X112140000Y-94932142D01*
X112187619Y-94979761D01*
X112282857Y-95027380D01*
X112378095Y-95027380D01*
X112473333Y-94979761D01*
X112520952Y-94932142D01*
X112568571Y-94836904D01*
X112616190Y-94646428D01*
X112616190Y-94408333D01*
X112568571Y-94217857D01*
X112520952Y-94122619D01*
X112473333Y-94075000D01*
X112378095Y-94027380D01*
X111616190Y-95027380D02*
X111616190Y-94027380D01*
X111282857Y-94741666D01*
X110949523Y-94027380D01*
X110949523Y-95027380D01*
X110473333Y-95027380D02*
X110473333Y-94027380D01*
X110140000Y-94741666D01*
X109806666Y-94027380D01*
X109806666Y-95027380D01*
X107997142Y-94932142D02*
X108044761Y-94979761D01*
X108187619Y-95027380D01*
X108282857Y-95027380D01*
X108425714Y-94979761D01*
X108520952Y-94884523D01*
X108568571Y-94789285D01*
X108616190Y-94598809D01*
X108616190Y-94455952D01*
X108568571Y-94265476D01*
X108520952Y-94170238D01*
X108425714Y-94075000D01*
X108282857Y-94027380D01*
X108187619Y-94027380D01*
X108044761Y-94075000D01*
X107997142Y-94122619D01*
X107425714Y-95027380D02*
X107520952Y-94979761D01*
X107568571Y-94932142D01*
X107616190Y-94836904D01*
X107616190Y-94551190D01*
X107568571Y-94455952D01*
X107520952Y-94408333D01*
X107425714Y-94360714D01*
X107282857Y-94360714D01*
X107187619Y-94408333D01*
X107140000Y-94455952D01*
X107092380Y-94551190D01*
X107092380Y-94836904D01*
X107140000Y-94932142D01*
X107187619Y-94979761D01*
X107282857Y-95027380D01*
X107425714Y-95027380D01*
X106663809Y-95027380D02*
X106663809Y-94360714D01*
X106663809Y-94027380D02*
X106711428Y-94075000D01*
X106663809Y-94122619D01*
X106616190Y-94075000D01*
X106663809Y-94027380D01*
X106663809Y-94122619D01*
X106187619Y-94360714D02*
X106187619Y-95027380D01*
X106187619Y-94455952D02*
X106140000Y-94408333D01*
X106044761Y-94360714D01*
X105901904Y-94360714D01*
X105806666Y-94408333D01*
X105759047Y-94503571D01*
X105759047Y-95027380D01*
X113568571Y-96582142D02*
X113616190Y-96629761D01*
X113759047Y-96677380D01*
X113854285Y-96677380D01*
X113997142Y-96629761D01*
X114092380Y-96534523D01*
X114140000Y-96439285D01*
X114187619Y-96248809D01*
X114187619Y-96105952D01*
X114140000Y-95915476D01*
X114092380Y-95820238D01*
X113997142Y-95725000D01*
X113854285Y-95677380D01*
X113759047Y-95677380D01*
X113616190Y-95725000D01*
X113568571Y-95772619D01*
X112759047Y-96629761D02*
X112854285Y-96677380D01*
X113044761Y-96677380D01*
X113140000Y-96629761D01*
X113187619Y-96534523D01*
X113187619Y-96153571D01*
X113140000Y-96058333D01*
X113044761Y-96010714D01*
X112854285Y-96010714D01*
X112759047Y-96058333D01*
X112711428Y-96153571D01*
X112711428Y-96248809D01*
X113187619Y-96344047D01*
X112140000Y-96677380D02*
X112235238Y-96629761D01*
X112282857Y-96534523D01*
X112282857Y-95677380D01*
X111616190Y-96677380D02*
X111711428Y-96629761D01*
X111759047Y-96534523D01*
X111759047Y-95677380D01*
X109901904Y-96582142D02*
X109949523Y-96629761D01*
X110092380Y-96677380D01*
X110187619Y-96677380D01*
X110330476Y-96629761D01*
X110425714Y-96534523D01*
X110473333Y-96439285D01*
X110520952Y-96248809D01*
X110520952Y-96105952D01*
X110473333Y-95915476D01*
X110425714Y-95820238D01*
X110330476Y-95725000D01*
X110187619Y-95677380D01*
X110092380Y-95677380D01*
X109949523Y-95725000D01*
X109901904Y-95772619D01*
X109473333Y-96677380D02*
X109473333Y-95677380D01*
X109044761Y-96677380D02*
X109044761Y-96153571D01*
X109092380Y-96058333D01*
X109187619Y-96010714D01*
X109330476Y-96010714D01*
X109425714Y-96058333D01*
X109473333Y-96105952D01*
X108140000Y-96677380D02*
X108140000Y-96153571D01*
X108187619Y-96058333D01*
X108282857Y-96010714D01*
X108473333Y-96010714D01*
X108568571Y-96058333D01*
X108140000Y-96629761D02*
X108235238Y-96677380D01*
X108473333Y-96677380D01*
X108568571Y-96629761D01*
X108616190Y-96534523D01*
X108616190Y-96439285D01*
X108568571Y-96344047D01*
X108473333Y-96296428D01*
X108235238Y-96296428D01*
X108140000Y-96248809D01*
X107663809Y-96677380D02*
X107663809Y-96010714D01*
X107663809Y-96201190D02*
X107616190Y-96105952D01*
X107568571Y-96058333D01*
X107473333Y-96010714D01*
X107378095Y-96010714D01*
X106616190Y-96010714D02*
X106616190Y-96820238D01*
X106663809Y-96915476D01*
X106711428Y-96963095D01*
X106806666Y-97010714D01*
X106949523Y-97010714D01*
X107044761Y-96963095D01*
X106616190Y-96629761D02*
X106711428Y-96677380D01*
X106901904Y-96677380D01*
X106997142Y-96629761D01*
X107044761Y-96582142D01*
X107092380Y-96486904D01*
X107092380Y-96201190D01*
X107044761Y-96105952D01*
X106997142Y-96058333D01*
X106901904Y-96010714D01*
X106711428Y-96010714D01*
X106616190Y-96058333D01*
X105759047Y-96629761D02*
X105854285Y-96677380D01*
X106044761Y-96677380D01*
X106140000Y-96629761D01*
X106187619Y-96534523D01*
X106187619Y-96153571D01*
X106140000Y-96058333D01*
X106044761Y-96010714D01*
X105854285Y-96010714D01*
X105759047Y-96058333D01*
X105711428Y-96153571D01*
X105711428Y-96248809D01*
X106187619Y-96344047D01*
X105282857Y-96677380D02*
X105282857Y-96010714D01*
X105282857Y-96201190D02*
X105235238Y-96105952D01*
X105187619Y-96058333D01*
X105092380Y-96010714D01*
X104997142Y-96010714D01*
X135848000Y-84859000D02*
X126450000Y-84859000D01*
X135848000Y-105941000D02*
X135848000Y-84859000D01*
X126450000Y-105941000D02*
X135848000Y-105941000D01*
X126450000Y-84859000D02*
X121370000Y-84859000D01*
X116544000Y-91717000D02*
X116544000Y-95400000D01*
X116544000Y-95400000D02*
X116544000Y-99083000D01*
X116544000Y-91717000D02*
X121370000Y-84859000D01*
X121370000Y-105941000D02*
X116544000Y-99083000D01*
X126450000Y-105941000D02*
X121370000Y-105941000D01*
X120790571Y-94614285D02*
X120838190Y-94757142D01*
X120885809Y-94804761D01*
X120981047Y-94852380D01*
X121123904Y-94852380D01*
X121219142Y-94804761D01*
X121266761Y-94757142D01*
X121314380Y-94661904D01*
X121314380Y-94280952D01*
X120314380Y-94280952D01*
X120314380Y-94614285D01*
X120362000Y-94709523D01*
X120409619Y-94757142D01*
X120504857Y-94804761D01*
X120600095Y-94804761D01*
X120695333Y-94757142D01*
X120742952Y-94709523D01*
X120790571Y-94614285D01*
X120790571Y-94280952D01*
X120314380Y-95138095D02*
X120314380Y-95709523D01*
X121314380Y-95423809D02*
X120314380Y-95423809D01*
X121314380Y-96566666D02*
X121314380Y-95995238D01*
X121314380Y-96280952D02*
X120314380Y-96280952D01*
X120457238Y-96185714D01*
X120552476Y-96090476D01*
X120600095Y-95995238D01*
%LPC*%
D12*
X126450000Y-95400000D03*
D13*
X126450000Y-84845000D03*
X126450000Y-105955000D03*
M02*
