G04 #@! TF.GenerationSoftware,KiCad,Pcbnew,(2017-01-24 revision 0b6147e)-makepkg*
G04 #@! TF.CreationDate,2017-09-23T14:32:10-07:00*
G04 #@! TF.ProjectId,LIR2032Charger,4C495232303332436861726765722E6B,rev?*
G04 #@! TF.FileFunction,Copper,L1,Top,Signal*
G04 #@! TF.FilePolarity,Positive*
%FSLAX46Y46*%
G04 Gerber Fmt 4.6, Leading zero omitted, Abs format (unit mm)*
G04 Created by KiCad (PCBNEW (2017-01-24 revision 0b6147e)-makepkg) date 09/23/17 14:32:10*
%MOMM*%
%LPD*%
G01*
G04 APERTURE LIST*
%ADD10C,0.100000*%
%ADD11C,3.100000*%
%ADD12R,1.250000X1.000000*%
%ADD13R,1.600000X1.000000*%
%ADD14R,8.000000X1.900000*%
%ADD15R,7.500000X2.000000*%
%ADD16R,1.198880X1.198880*%
%ADD17R,0.700000X1.300000*%
%ADD18R,1.100000X0.600000*%
%ADD19C,0.800000*%
%ADD20C,0.254000*%
%ADD21C,0.508000*%
%ADD22C,0.250000*%
G04 APERTURE END LIST*
D10*
D11*
X126450000Y-84845000D03*
X126450000Y-105955000D03*
D12*
X118000000Y-96500000D03*
X118000000Y-94500000D03*
D13*
X126000000Y-94000000D03*
X126000000Y-97000000D03*
D14*
X109000000Y-99210000D03*
X109000000Y-91590000D03*
D15*
X109250000Y-94100000D03*
X109250000Y-96700000D03*
D16*
X135049020Y-100300000D03*
X132950980Y-100300000D03*
X132950980Y-90500000D03*
X135049020Y-90500000D03*
D17*
X129450000Y-100300000D03*
X127550000Y-100300000D03*
X127550000Y-90500000D03*
X129450000Y-90500000D03*
X124450000Y-100300000D03*
X122550000Y-100300000D03*
X119450000Y-90500000D03*
X117550000Y-90500000D03*
D18*
X123380000Y-94530000D03*
X123380000Y-95480000D03*
X123380000Y-96430000D03*
X120580000Y-96430000D03*
X120580000Y-94530000D03*
D16*
X122450980Y-90500000D03*
X124549020Y-90500000D03*
D19*
X125700000Y-100700000D03*
X113620000Y-91580000D03*
X125140000Y-89290000D03*
X118770000Y-93330000D03*
X127360000Y-98090000D03*
X122080000Y-95480000D03*
X136340000Y-90500000D03*
D20*
X124450000Y-100300000D02*
X125300000Y-100300000D01*
X125300000Y-100300000D02*
X125700000Y-100700000D01*
D21*
X109000000Y-91590000D02*
X113610000Y-91590000D01*
X113610000Y-91590000D02*
X113620000Y-91580000D01*
D20*
X124549020Y-90500000D02*
X124549020Y-89880980D01*
X124549020Y-89880980D02*
X125140000Y-89290000D01*
X118000000Y-94500000D02*
X118000000Y-94100000D01*
X118000000Y-94100000D02*
X118770000Y-93330000D01*
D21*
X126000000Y-97000000D02*
X126270000Y-97000000D01*
X126270000Y-97000000D02*
X127360000Y-98090000D01*
X123380000Y-95480000D02*
X122080000Y-95480000D01*
D20*
X135049020Y-90500000D02*
X136340000Y-90500000D01*
D21*
X128480000Y-91650000D02*
X128480000Y-86875000D01*
X128480000Y-86875000D02*
X126450000Y-84845000D01*
X129440000Y-92610000D02*
X128480000Y-91650000D01*
X130250000Y-92610000D02*
X129440000Y-92610000D01*
X136870000Y-99230000D02*
X130250000Y-92610000D01*
X136870000Y-101310000D02*
X136870000Y-99230000D01*
X132225000Y-105955000D02*
X136870000Y-101310000D01*
X126450000Y-105955000D02*
X132225000Y-105955000D01*
X126000000Y-94000000D02*
X126000000Y-85295000D01*
X126000000Y-85295000D02*
X126450000Y-84845000D01*
X124070000Y-94530000D02*
X124600000Y-94000000D01*
X124600000Y-94000000D02*
X126000000Y-94000000D01*
X123380000Y-94530000D02*
X124070000Y-94530000D01*
X131890000Y-102470000D02*
X132950980Y-101409020D01*
X132950980Y-101409020D02*
X132950980Y-100300000D01*
X121270000Y-102470000D02*
X131890000Y-102470000D01*
X118000000Y-99200000D02*
X121270000Y-102470000D01*
X118000000Y-98000000D02*
X118000000Y-99200000D01*
X118800000Y-92400000D02*
X119450000Y-91750000D01*
X119450000Y-91750000D02*
X119450000Y-90500000D01*
X117200000Y-92400000D02*
X118800000Y-92400000D01*
X115700000Y-93900000D02*
X117200000Y-92400000D01*
X115700000Y-97000000D02*
X115700000Y-93900000D01*
X113490000Y-99210000D02*
X115700000Y-97000000D01*
X109000000Y-99210000D02*
X113490000Y-99210000D01*
X119500000Y-94800000D02*
X119770000Y-94530000D01*
X119770000Y-94530000D02*
X120580000Y-94530000D01*
X119500000Y-95700000D02*
X119500000Y-94800000D01*
X118700000Y-96500000D02*
X119500000Y-95700000D01*
X118000000Y-96500000D02*
X118700000Y-96500000D01*
X116790000Y-99210000D02*
X118000000Y-98000000D01*
X118000000Y-98000000D02*
X118000000Y-96500000D01*
X109000000Y-99210000D02*
X116790000Y-99210000D01*
D22*
X118000000Y-96500000D02*
X117500000Y-96500000D01*
D20*
X134600000Y-98830000D02*
X135049020Y-99279020D01*
X135049020Y-99279020D02*
X135049020Y-100300000D01*
X131720000Y-98830000D02*
X134600000Y-98830000D01*
X130250000Y-100300000D02*
X131720000Y-98830000D01*
X129450000Y-100300000D02*
X130250000Y-100300000D01*
D22*
X129450000Y-100000000D02*
X129500000Y-100000000D01*
D20*
X132950980Y-90500000D02*
X129450000Y-90500000D01*
X123380000Y-97180000D02*
X126500000Y-100300000D01*
X126500000Y-100300000D02*
X127550000Y-100300000D01*
X123380000Y-96430000D02*
X123380000Y-97180000D01*
X123380000Y-96430000D02*
X124070000Y-96430000D01*
X124070000Y-96430000D02*
X125000000Y-95500000D01*
X125000000Y-95500000D02*
X126700000Y-95500000D01*
X126700000Y-95500000D02*
X127550000Y-94650000D01*
X127550000Y-94650000D02*
X127550000Y-90500000D01*
X120580000Y-99380000D02*
X121500000Y-100300000D01*
X121500000Y-100300000D02*
X122550000Y-100300000D01*
X120580000Y-96430000D02*
X120580000Y-99380000D01*
X122000000Y-88900000D02*
X122450980Y-89350980D01*
X122450980Y-89350980D02*
X122450980Y-90500000D01*
X118200000Y-88900000D02*
X122000000Y-88900000D01*
X117550000Y-89550000D02*
X118200000Y-88900000D01*
X117550000Y-90500000D02*
X117550000Y-89550000D01*
M02*
